/////////////////////////////////////////////////////////////////////////////
// sfz definition file
// copyright Chicken Systems, Inc.
// -------------------------------------------------------------------------
// Application: Translator 6 6.0, Build 27
// Vendor: 


<group> group_label=NewGroups-01

<region> sample=..\..\Samples\PRE6\P_1_Pre6_C0_RR1.wav lokey=0 hikey=12 end=417989 loop_mode=loop_continuous loopstart=141378 loopend=417988 pitch_keycenter=12 bend_up=200 bend_down=-200 amp_veltrack=38.582676 ampeg_release=0.1 pitchlfo_freq=5 

<region> sample=..\..\Samples\PRE6\P_3_Pre6_C#0_RR1.wav lokey=13 hikey=13 end=552794 loop_mode=loop_continuous loopstart=186974 loopend=552793 pitch_keycenter=13 bend_up=200 bend_down=-200 amp_veltrack=38.582676 ampeg_release=0.1 pitchlfo_freq=5 

<region> sample=..\..\Samples\PRE6\P_5_Pre6_D0_RR1.wav lokey=14 hikey=14 end=536708 loop_mode=loop_continuous loopstart=181533 loopend=536707 pitch_keycenter=14 bend_up=200 bend_down=-200 amp_veltrack=38.582676 ampeg_release=0.1 pitchlfo_freq=5 

<region> sample=..\..\Samples\PRE6\P_7_Pre6_D#0_RR1.wav lokey=15 hikey=15 end=532584 loop_mode=loop_continuous loopstart=180138 loopend=532583 pitch_keycenter=15 bend_up=200 bend_down=-200 amp_veltrack=38.582676 ampeg_release=0.1 pitchlfo_freq=5 

<region> sample=..\..\Samples\PRE6\P_9_Pre6_E0_RR1.wav lokey=16 hikey=16 end=563306 loop_mode=loop_continuous loopstart=190529 loopend=563305 pitch_keycenter=16 bend_up=200 bend_down=-200 amp_veltrack=38.582676 ampeg_release=0.1 pitchlfo_freq=5 

<region> sample=..\..\Samples\PRE6\P_11_Pre6_F0_RR1.wav lokey=17 hikey=17 end=548359 loop_mode=loop_continuous loopstart=185474 loopend=548358 pitch_keycenter=17 bend_up=200 bend_down=-200 amp_veltrack=38.582676 ampeg_release=0.1 pitchlfo_freq=5 

<region> sample=..\..\Samples\PRE6\P_13_Pre6_F#0_RR1.wav lokey=18 hikey=18 end=545235 loop_mode=loop_continuous loopstart=184417 loopend=545234 pitch_keycenter=18 bend_up=200 bend_down=-200 amp_veltrack=38.582676 ampeg_release=0.1 pitchlfo_freq=5 

<region> sample=..\..\Samples\PRE6\P_15_Pre6_G0_RR1.wav lokey=19 hikey=19 end=550936 loop_mode=loop_continuous loopstart=186345 loopend=550935 pitch_keycenter=19 bend_up=200 bend_down=-200 amp_veltrack=38.582676 ampeg_release=0.1 pitchlfo_freq=5 

<region> sample=..\..\Samples\PRE6\P_17_Pre6_G#0_RR1.wav lokey=20 hikey=20 end=561057 loop_mode=loop_continuous loopstart=189769 loopend=561056 pitch_keycenter=20 bend_up=200 bend_down=-200 amp_veltrack=38.582676 ampeg_release=0.1 pitchlfo_freq=5 

<region> sample=..\..\Samples\PRE6\P_19_Pre6_A0_RR1.wav lokey=21 hikey=21 end=540175 loop_mode=loop_continuous loopstart=182706 loopend=540174 pitch_keycenter=21 bend_up=200 bend_down=-200 amp_veltrack=38.582676 ampeg_release=0.1 pitchlfo_freq=5 

<region> sample=..\..\Samples\PRE6\P_21_Pre6_A#0_RR1.wav lokey=22 hikey=22 end=550936 loop_mode=loop_continuous loopstart=186345 loopend=550935 pitch_keycenter=22 bend_up=200 bend_down=-200 amp_veltrack=38.582676 ampeg_release=0.1 pitchlfo_freq=5 

<region> sample=..\..\Samples\PRE6\P_23_Pre6_B0_RR1.wav lokey=23 hikey=23 end=562088 loop_mode=loop_continuous loopstart=190117 loopend=562087 pitch_keycenter=23 bend_up=200 bend_down=-200 amp_veltrack=38.582676 ampeg_release=0.1 pitchlfo_freq=5 

<region> sample=..\..\Samples\PRE6\P_25_Pre6_C1_RR1.wav lokey=24 hikey=24 end=552529 loop_mode=loop_continuous loopstart=186884 loopend=552528 pitch_keycenter=24 bend_up=200 bend_down=-200 amp_veltrack=38.582676 ampeg_release=0.1 pitchlfo_freq=5 

<region> sample=..\..\Samples\PRE6\P_27_Pre6_C#1_RR1.wav lokey=25 hikey=25 end=540284 loop_mode=loop_continuous loopstart=182743 loopend=540283 pitch_keycenter=25 bend_up=200 bend_down=-200 amp_veltrack=38.582676 ampeg_release=0.1 pitchlfo_freq=5 

<region> sample=..\..\Samples\PRE6\P_29_Pre6_D1_RR1.wav lokey=26 hikey=26 end=570506 loop_mode=loop_continuous loopstart=192965 loopend=570505 pitch_keycenter=26 bend_up=200 bend_down=-200 amp_veltrack=38.582676 ampeg_release=0.1 pitchlfo_freq=5 

<region> sample=..\..\Samples\PRE6\P_31_Pre6_D#1_RR1.wav lokey=27 hikey=27 end=540924 loop_mode=loop_continuous loopstart=182959 loopend=540923 pitch_keycenter=27 bend_up=200 bend_down=-200 amp_veltrack=38.582676 ampeg_release=0.1 pitchlfo_freq=5 

<region> sample=..\..\Samples\PRE6\P_33_Pre6_E1_RR1.wav lokey=28 hikey=28 end=581345 loop_mode=loop_continuous loopstart=196631 loopend=581344 pitch_keycenter=28 bend_up=200 bend_down=-200 amp_veltrack=38.582676 ampeg_release=0.1 pitchlfo_freq=5 

<region> sample=..\..\Samples\PRE6\P_35_Pre6_F1_RR1.wav lokey=29 hikey=29 end=541596 loop_mode=loop_continuous loopstart=183186 loopend=541595 pitch_keycenter=29 bend_up=200 bend_down=-200 amp_veltrack=38.582676 ampeg_release=0.1 pitchlfo_freq=5 

<region> sample=..\..\Samples\PRE6\P_37_Pre6_F#1_RR1.wav lokey=30 hikey=30 end=560057 loop_mode=loop_continuous loopstart=189430 loopend=560056 pitch_keycenter=30 bend_up=200 bend_down=-200 amp_veltrack=38.582676 ampeg_release=0.1 pitchlfo_freq=5 

<region> sample=..\..\Samples\PRE6\P_39_Pre6_G1_RR1.wav lokey=31 hikey=31 end=524415 loop_mode=loop_continuous loopstart=177375 loopend=524414 pitch_keycenter=31 bend_up=200 bend_down=-200 amp_veltrack=38.582676 ampeg_release=0.1 pitchlfo_freq=5 

<region> sample=..\..\Samples\PRE6\P_41_Pre6_G#1_RR1.wav lokey=32 hikey=32 end=554934 loop_mode=loop_continuous loopstart=187698 loopend=554933 pitch_keycenter=32 bend_up=200 bend_down=-200 amp_veltrack=38.582676 ampeg_release=0.1 pitchlfo_freq=5 

<region> sample=..\..\Samples\PRE6\P_43_Pre6_A1_RR1.wav lokey=33 hikey=33 end=568023 loop_mode=loop_continuous loopstart=192125 loopend=568022 pitch_keycenter=33 bend_up=200 bend_down=-200 amp_veltrack=38.582676 ampeg_release=0.1 pitchlfo_freq=5 

<region> sample=..\..\Samples\PRE6\P_45_Pre6_A#1_RR1.wav lokey=34 hikey=34 end=547703 loop_mode=loop_continuous loopstart=185252 loopend=547702 pitch_keycenter=34 bend_up=200 bend_down=-200 amp_veltrack=38.582676 ampeg_release=0.1 pitchlfo_freq=5 

<region> sample=..\..\Samples\PRE6\P_47_Pre6_B1_RR1.wav lokey=35 hikey=35 end=545844 loop_mode=loop_continuous loopstart=184623 loopend=545843 pitch_keycenter=35 bend_up=200 bend_down=-200 amp_veltrack=38.582676 ampeg_release=0.1 pitchlfo_freq=5 

<region> sample=..\..\Samples\PRE6\K_1_Pre6_C0_RR1.wav lokey=36 hikey=36 end=539300 loop_mode=loop_continuous loopstart=182410 loopend=539299 pitch_keycenter=36 bend_up=200 bend_down=-200 amp_veltrack=38.582676 ampeg_release=0.1 pitchlfo_freq=5 

<region> sample=..\..\Samples\PRE6\K_3_Pre6_C#0_RR1.wav lokey=37 hikey=37 end=532506 loop_mode=loop_continuous loopstart=180112 loopend=532505 pitch_keycenter=37 bend_up=200 bend_down=-200 amp_veltrack=38.582676 ampeg_release=0.1 pitchlfo_freq=5 

<region> sample=..\..\Samples\PRE6\K_5_Pre6_D0_RR1.wav lokey=38 hikey=38 end=551030 loop_mode=loop_continuous loopstart=186377 loopend=551029 pitch_keycenter=38 bend_up=200 bend_down=-200 amp_veltrack=38.582676 ampeg_release=0.1 pitchlfo_freq=5 

<region> sample=..\..\Samples\PRE6\K_7_Pre6_D#0_RR1.wav lokey=39 hikey=39 end=532678 loop_mode=loop_continuous loopstart=180170 loopend=532677 pitch_keycenter=39 bend_up=200 bend_down=-200 amp_veltrack=38.582676 ampeg_release=0.1 pitchlfo_freq=5 

<region> sample=..\..\Samples\PRE6\K_9_Pre6_E0_RR1.wav lokey=40 hikey=40 end=529085 loop_mode=loop_continuous loopstart=178955 loopend=529084 pitch_keycenter=40 bend_up=200 bend_down=-200 amp_veltrack=38.582676 ampeg_release=0.1 pitchlfo_freq=5 

<region> sample=..\..\Samples\PRE6\K_11_Pre6_F0_RR1.wav lokey=41 hikey=41 end=537488 loop_mode=loop_continuous loopstart=181797 loopend=537487 pitch_keycenter=41 bend_up=200 bend_down=-200 amp_veltrack=38.582676 ampeg_release=0.1 pitchlfo_freq=5 

<region> sample=..\..\Samples\PRE6\K_13_Pre6_F#0_RR1.wav lokey=42 hikey=42 end=553872 loop_mode=loop_continuous loopstart=187338 loopend=553871 pitch_keycenter=42 bend_up=200 bend_down=-200 amp_veltrack=38.582676 ampeg_release=0.1 pitchlfo_freq=5 

<region> sample=..\..\Samples\PRE6\K_15_Pre6_G0_RR1.wav lokey=43 hikey=43 end=530381 loop_mode=loop_continuous loopstart=179393 loopend=530380 pitch_keycenter=43 bend_up=200 bend_down=-200 amp_veltrack=38.582676 ampeg_release=0.1 pitchlfo_freq=5 

<region> sample=..\..\Samples\PRE6\K_17_Pre6_G#0_RR1.wav lokey=44 hikey=44 end=539331 loop_mode=loop_continuous loopstart=182420 loopend=539330 pitch_keycenter=44 bend_up=200 bend_down=-200 amp_veltrack=38.582676 ampeg_release=0.1 pitchlfo_freq=5 

<region> sample=..\..\Samples\PRE6\K_19_Pre6_A0_RR1.wav lokey=45 hikey=45 end=535739 loop_mode=loop_continuous loopstart=181205 loopend=535738 pitch_keycenter=45 bend_up=200 bend_down=-200 amp_veltrack=38.582676 ampeg_release=0.1 pitchlfo_freq=5 

<region> sample=..\..\Samples\PRE6\K_21_Pre6_A#0_RR1.wav lokey=46 hikey=46 end=535989 loop_mode=loop_continuous loopstart=181290 loopend=535988 pitch_keycenter=46 bend_up=200 bend_down=-200 amp_veltrack=38.582676 ampeg_release=0.1 pitchlfo_freq=5 

<region> sample=..\..\Samples\PRE6\K_23_Pre6_B0_RR1.wav lokey=47 hikey=47 end=543221 loop_mode=loop_continuous loopstart=183736 loopend=543220 pitch_keycenter=47 bend_up=200 bend_down=-200 amp_veltrack=38.582676 ampeg_release=0.1 pitchlfo_freq=5 

<region> sample=..\..\Samples\PRE6\K_25_Pre6_C1_RR1.wav lokey=48 hikey=48 end=532802 loop_mode=loop_continuous loopstart=180212 loopend=532801 pitch_keycenter=48 bend_up=200 bend_down=-200 amp_veltrack=38.582676 ampeg_release=0.1 pitchlfo_freq=5 

<region> sample=..\..\Samples\PRE6\K_27_Pre6_C#1_RR1.wav lokey=49 hikey=49 end=530772 loop_mode=loop_continuous loopstart=179525 loopend=530771 pitch_keycenter=49 bend_up=200 bend_down=-200 amp_veltrack=38.582676 ampeg_release=0.1 pitchlfo_freq=5 

<region> sample=..\..\Samples\PRE6\K_29_Pre6_D1_RR1.wav lokey=50 hikey=50 end=545313 loop_mode=loop_continuous loopstart=184443 loopend=545312 pitch_keycenter=50 bend_up=200 bend_down=-200 amp_veltrack=38.582676 ampeg_release=0.1 pitchlfo_freq=5 

<region> sample=..\..\Samples\PRE6\K_31_Pre6_D#1_RR1.wav lokey=51 hikey=51 end=544345 loop_mode=loop_continuous loopstart=184116 loopend=544344 pitch_keycenter=51 bend_up=200 bend_down=-200 amp_veltrack=38.582676 ampeg_release=0.1 pitchlfo_freq=5 

<region> sample=..\..\Samples\PRE6\K_33_Pre6_E1_RR1.wav lokey=52 hikey=52 end=531350 loop_mode=loop_continuous loopstart=179721 loopend=531349 pitch_keycenter=52 bend_up=200 bend_down=-200 amp_veltrack=38.582676 ampeg_release=0.1 pitchlfo_freq=5 

<region> sample=..\..\Samples\PRE6\K_35_Pre6_F1_RR1.wav lokey=53 hikey=53 end=528586 loop_mode=loop_continuous loopstart=178786 loopend=528585 pitch_keycenter=53 bend_up=200 bend_down=-200 amp_veltrack=38.582676 ampeg_release=0.1 pitchlfo_freq=5 

<region> sample=..\..\Samples\PRE6\K_37_Pre6_F#1_RR1.wav lokey=54 hikey=54 end=567288 loop_mode=loop_continuous loopstart=191876 loopend=567287 pitch_keycenter=54 bend_up=200 bend_down=-200 amp_veltrack=38.582676 ampeg_release=0.1 pitchlfo_freq=5 

<region> sample=..\..\Samples\PRE6\K_39_Pre6_G1_RR1.wav lokey=55 hikey=55 end=554779 loop_mode=loop_continuous loopstart=187645 loopend=554778 pitch_keycenter=55 bend_up=200 bend_down=-200 amp_veltrack=38.582676 ampeg_release=0.1 pitchlfo_freq=5 

<region> sample=..\..\Samples\PRE6\K_41_Pre6_G#1_RR1.wav lokey=56 hikey=56 end=536614 loop_mode=loop_continuous loopstart=181501 loopend=536613 pitch_keycenter=56 bend_up=200 bend_down=-200 amp_veltrack=38.582676 ampeg_release=0.1 pitchlfo_freq=5 

<region> sample=..\..\Samples\PRE6\K_43_Pre6_A1_RR1.wav lokey=57 hikey=57 end=547984 loop_mode=loop_continuous loopstart=185347 loopend=547983 pitch_keycenter=57 bend_up=200 bend_down=-200 amp_veltrack=38.582676 ampeg_release=0.1 pitchlfo_freq=5 

<region> sample=..\..\Samples\PRE6\K_45_Pre6_A#1_RR1.wav lokey=58 hikey=58 end=553185 loop_mode=loop_continuous loopstart=187106 loopend=553184 pitch_keycenter=58 bend_up=200 bend_down=-200 amp_veltrack=38.582676 ampeg_release=0.1 pitchlfo_freq=5 

<region> sample=..\..\Samples\PRE6\K_47_Pre6_B1_RR1.wav lokey=59 hikey=59 end=538675 loop_mode=loop_continuous loopstart=182198 loopend=538674 pitch_keycenter=59 bend_up=200 bend_down=-200 amp_veltrack=38.582676 ampeg_release=0.1 pitchlfo_freq=5 

<region> sample=..\..\Samples\PRE6\K_49_Pre6_C2_RR1.wav lokey=60 hikey=60 end=548062 loop_mode=loop_continuous loopstart=185373 loopend=548061 pitch_keycenter=60 bend_up=200 bend_down=-200 amp_veltrack=38.582676 ampeg_release=0.1 pitchlfo_freq=5 

<region> sample=..\..\Samples\PRE6\K_51_Pre6_C#2_RR1.wav lokey=61 hikey=61 end=538129 loop_mode=loop_continuous loopstart=182013 loopend=538128 pitch_keycenter=61 bend_up=200 bend_down=-200 amp_veltrack=38.582676 ampeg_release=0.1 pitchlfo_freq=5 

<region> sample=..\..\Samples\PRE6\K_53_Pre6_D2_RR1.wav lokey=62 hikey=62 end=534193 loop_mode=loop_continuous loopstart=180682 loopend=534192 pitch_keycenter=62 bend_up=200 bend_down=-200 amp_veltrack=38.582676 ampeg_release=0.1 pitchlfo_freq=5 

<region> sample=..\..\Samples\PRE6\K_55_Pre6_D#2_RR1.wav lokey=63 hikey=63 end=543329 loop_mode=loop_continuous loopstart=183772 loopend=543328 pitch_keycenter=63 bend_up=200 bend_down=-200 amp_veltrack=38.582676 ampeg_release=0.1 pitchlfo_freq=5 

<region> sample=..\..\Samples\PRE6\K_57_Pre6_E2_RR1.wav lokey=64 hikey=64 end=537410 loop_mode=loop_continuous loopstart=181770 loopend=537409 pitch_keycenter=64 bend_up=200 bend_down=-200 amp_veltrack=38.582676 ampeg_release=0.1 pitchlfo_freq=5 

<region> sample=..\..\Samples\PRE6\K_59_Pre6_F2_RR1.wav lokey=65 hikey=65 end=525915 loop_mode=loop_continuous loopstart=177882 loopend=525914 pitch_keycenter=65 bend_up=200 bend_down=-200 amp_veltrack=38.582676 ampeg_release=0.1 pitchlfo_freq=5 

<region> sample=..\..\Samples\PRE6\K_61_Pre6_F#2_RR1.wav lokey=66 hikey=66 end=542205 loop_mode=loop_continuous loopstart=183392 loopend=542204 pitch_keycenter=66 bend_up=200 bend_down=-200 amp_veltrack=38.582676 ampeg_release=0.1 pitchlfo_freq=5 

<region> sample=..\..\Samples\PRE6\K_63_Pre6_G2_RR1.wav lokey=67 hikey=67 end=551686 loop_mode=loop_continuous loopstart=186599 loopend=551685 pitch_keycenter=67 bend_up=200 bend_down=-200 amp_veltrack=38.582676 ampeg_release=0.1 pitchlfo_freq=5 

<region> sample=..\..\Samples\PRE6\K_65_Pre6_G#2_RR1.wav lokey=68 hikey=68 end=557824 loop_mode=loop_continuous loopstart=188675 loopend=557823 pitch_keycenter=68 bend_up=200 bend_down=-200 amp_veltrack=38.582676 ampeg_release=0.1 pitchlfo_freq=5 

<region> sample=..\..\Samples\PRE6\K_67_Pre6_A2_RR1.wav lokey=69 hikey=69 end=551998 loop_mode=loop_continuous loopstart=186705 loopend=551997 pitch_keycenter=69 bend_up=200 bend_down=-200 amp_veltrack=38.582676 ampeg_release=0.1 pitchlfo_freq=5 

<region> sample=..\..\Samples\PRE6\K_69_Pre6_A#2_RR1.wav lokey=70 hikey=70 end=830012 loop_mode=loop_continuous loopstart=280739 loopend=830011 pitch_keycenter=70 bend_up=200 bend_down=-200 amp_veltrack=38.582676 ampeg_release=0.1 pitchlfo_freq=5 

<region> sample=..\..\Samples\PRE6\K_71_Pre6_B2_RR1.wav lokey=71 hikey=71 end=531475 loop_mode=loop_continuous loopstart=179763 loopend=531474 pitch_keycenter=71 bend_up=200 bend_down=-200 amp_veltrack=38.582676 ampeg_release=0.1 pitchlfo_freq=5 

<region> sample=..\..\Samples\PRE6\K_73_Pre6_C3_RR1.wav lokey=72 hikey=72 end=521042 loop_mode=loop_continuous loopstart=176234 loopend=521041 pitch_keycenter=72 bend_up=200 bend_down=-200 amp_veltrack=38.582676 ampeg_release=0.1 pitchlfo_freq=5 

<region> sample=..\..\Samples\PRE6\K_75_Pre6_C#3_RR1.wav lokey=73 hikey=73 end=538535 loop_mode=loop_continuous loopstart=182151 loopend=538534 pitch_keycenter=73 bend_up=200 bend_down=-200 amp_veltrack=38.582676 ampeg_release=0.1 pitchlfo_freq=5 

<region> sample=..\..\Samples\PRE6\K_77_Pre6_D3_RR1.wav lokey=74 hikey=74 end=553654 loop_mode=loop_continuous loopstart=187265 loopend=553653 pitch_keycenter=74 bend_up=200 bend_down=-200 amp_veltrack=38.582676 ampeg_release=0.1 pitchlfo_freq=5 

<region> sample=..\..\Samples\PRE6\K_79_Pre6_D#3_RR1.wav lokey=75 hikey=75 end=540003 loop_mode=loop_continuous loopstart=182647 loopend=540002 pitch_keycenter=75 bend_up=200 bend_down=-200 amp_veltrack=38.582676 ampeg_release=0.1 pitchlfo_freq=5 

<region> sample=..\..\Samples\PRE6\K_81_Pre6_E3_RR1.wav lokey=76 hikey=76 end=555216 loop_mode=loop_continuous loopstart=187793 loopend=555215 pitch_keycenter=76 bend_up=200 bend_down=-200 amp_veltrack=38.582676 ampeg_release=0.1 pitchlfo_freq=5 

<region> sample=..\..\Samples\PRE6\K_83_Pre6_F3_RR1.wav lokey=77 hikey=77 end=536708 loop_mode=loop_continuous loopstart=181533 loopend=536707 pitch_keycenter=77 bend_up=200 bend_down=-200 amp_veltrack=38.582676 ampeg_release=0.1 pitchlfo_freq=5 

<region> sample=..\..\Samples\PRE6\K_85_Pre6_F#3_RR1.wav lokey=78 hikey=78 end=534396 loop_mode=loop_continuous loopstart=180751 loopend=534395 pitch_keycenter=78 bend_up=200 bend_down=-200 amp_veltrack=38.582676 ampeg_release=0.1 pitchlfo_freq=5 

<region> sample=..\..\Samples\PRE6\K_87_Pre6_G3_RR1.wav lokey=79 hikey=79 end=535786 loop_mode=loop_continuous loopstart=181221 loopend=535785 pitch_keycenter=79 bend_up=200 bend_down=-200 amp_veltrack=38.582676 ampeg_release=0.1 pitchlfo_freq=5 

<region> sample=..\..\Samples\PRE6\K_89_Pre6_G#3_RR1.wav lokey=80 hikey=80 end=564915 loop_mode=loop_continuous loopstart=191073 loopend=564914 pitch_keycenter=80 bend_up=200 bend_down=-200 amp_veltrack=38.582676 ampeg_release=0.1 pitchlfo_freq=5 

<region> sample=..\..\Samples\PRE6\K_91_Pre6_A3_RR1.wav lokey=81 hikey=81 end=531818 loop_mode=loop_continuous loopstart=179879 loopend=531817 pitch_keycenter=81 bend_up=200 bend_down=-200 amp_veltrack=38.582676 ampeg_release=0.1 pitchlfo_freq=5 

<region> sample=..\..\Samples\PRE6\K_93_Pre6_A#3_RR1.wav lokey=82 hikey=82 end=551014 loop_mode=loop_continuous loopstart=186372 loopend=551013 pitch_keycenter=82 bend_up=200 bend_down=-200 amp_veltrack=38.582676 ampeg_release=0.1 pitchlfo_freq=5 

<region> sample=..\..\Samples\PRE6\K_95_Pre6_B3_RR1.wav lokey=83 hikey=83 end=542221 loop_mode=loop_continuous loopstart=183398 loopend=542220 pitch_keycenter=83 bend_up=200 bend_down=-200 amp_veltrack=38.582676 ampeg_release=0.1 pitchlfo_freq=5 

<region> sample=..\..\Samples\PRE6\K_97_Pre6_C4_RR1.wav lokey=84 hikey=84 end=549405 loop_mode=loop_continuous loopstart=185828 loopend=549404 pitch_keycenter=84 bend_up=200 bend_down=-200 amp_veltrack=38.582676 ampeg_release=0.1 pitchlfo_freq=5 

<region> sample=..\..\Samples\PRE6\K_99_Pre6_C#4_RR1.wav lokey=85 hikey=85 end=551529 loop_mode=loop_continuous loopstart=186546 loopend=551528 pitch_keycenter=85 bend_up=200 bend_down=-200 amp_veltrack=38.582676 ampeg_release=0.1 pitchlfo_freq=5 

<region> sample=..\..\Samples\PRE6\K_101_Pre6_D4_RR1.wav lokey=86 hikey=86 end=579753 loop_mode=loop_continuous loopstart=196092 loopend=579752 pitch_keycenter=86 bend_up=200 bend_down=-200 amp_veltrack=38.582676 ampeg_release=0.1 pitchlfo_freq=5 

<region> sample=..\..\Samples\PRE6\K_103_Pre6_D#4_RR1.wav lokey=87 hikey=87 end=522479 loop_mode=loop_continuous loopstart=176720 loopend=522478 pitch_keycenter=87 bend_up=200 bend_down=-200 amp_veltrack=38.582676 ampeg_release=0.1 pitchlfo_freq=5 

<region> sample=..\..\Samples\PRE6\K_105_Pre6_E4_RR1.wav lokey=88 hikey=88 end=543158 loop_mode=loop_continuous loopstart=183715 loopend=543157 pitch_keycenter=88 bend_up=200 bend_down=-200 amp_veltrack=38.582676 ampeg_release=0.1 pitchlfo_freq=5 

<region> sample=..\..\Samples\PRE6\K_107_Pre6_F4_RR1.wav lokey=89 hikey=89 end=547515 loop_mode=loop_continuous loopstart=185188 loopend=547514 pitch_keycenter=89 bend_up=200 bend_down=-200 amp_veltrack=38.582676 ampeg_release=0.1 pitchlfo_freq=5 

<region> sample=..\..\Samples\PRE6\K_109_Pre6_F#4_RR1.wav lokey=90 hikey=90 end=541971 loop_mode=loop_continuous loopstart=183313 loopend=541970 pitch_keycenter=90 bend_up=200 bend_down=-200 amp_veltrack=38.582676 ampeg_release=0.1 pitchlfo_freq=5 

<region> sample=..\..\Samples\PRE6\K_111_Pre6_G4_RR1.wav lokey=91 hikey=91 end=527461 loop_mode=loop_continuous loopstart=178405 loopend=527460 pitch_keycenter=91 bend_up=200 bend_down=-200 amp_veltrack=38.582676 ampeg_release=0.1 pitchlfo_freq=5 

<region> sample=..\..\Samples\PRE6\K_113_Pre6_G#4_RR1.wav lokey=92 hikey=92 end=539238 loop_mode=loop_continuous loopstart=182389 loopend=539237 pitch_keycenter=92 bend_up=200 bend_down=-200 amp_veltrack=38.582676 ampeg_release=0.1 pitchlfo_freq=5 

<region> sample=..\..\Samples\PRE6\K_115_Pre6_A4_RR1.wav lokey=93 hikey=93 end=558246 loop_mode=loop_continuous loopstart=188818 loopend=558245 pitch_keycenter=93 bend_up=200 bend_down=-200 amp_veltrack=38.582676 ampeg_release=0.1 pitchlfo_freq=5 

<region> sample=..\..\Samples\PRE6\K_117_Pre6_A#4_RR1.wav lokey=94 hikey=94 end=547937 loop_mode=loop_continuous loopstart=185331 loopend=547936 pitch_keycenter=94 bend_up=200 bend_down=-200 amp_veltrack=38.582676 ampeg_release=0.1 pitchlfo_freq=5 

<region> sample=..\..\Samples\PRE6\K_119_Pre6_B4_RR1.wav lokey=95 hikey=95 end=551124 loop_mode=loop_continuous loopstart=186409 loopend=551123 pitch_keycenter=95 bend_up=200 bend_down=-200 amp_veltrack=38.582676 ampeg_release=0.1 pitchlfo_freq=5 

<region> sample=..\..\Samples\PRE6\K_121_Pre6_C5_RR1.wav lokey=96 hikey=127 end=563556 loop_mode=loop_continuous loopstart=190614 loopend=563555 pitch_keycenter=96 bend_up=200 bend_down=-200 amp_veltrack=38.582676 ampeg_release=0.1 pitchlfo_freq=5 


<group> group_label=NewGroups-02

<region> sample=..\..\Samples\PRE6\P_2_Pre6_C0_RR2.wav lokey=0 hikey=12 end=496364 loop_mode=loop_continuous loopstart=167887 loopend=496363 pitch_keycenter=12 bend_up=200 bend_down=-200 amp_veltrack=38.582676 ampeg_release=0.1 pitchlfo_freq=5 

<region> sample=..\..\Samples\PRE6\P_4_Pre6_C#0_RR2.wav lokey=13 hikey=13 end=536192 loop_mode=loop_continuous loopstart=181358 loopend=536191 pitch_keycenter=13 bend_up=200 bend_down=-200 amp_veltrack=38.582676 ampeg_release=0.1 pitchlfo_freq=5 

<region> sample=..\..\Samples\PRE6\P_6_Pre6_D0_RR2.wav lokey=14 hikey=14 end=542361 loop_mode=loop_continuous loopstart=183445 loopend=542360 pitch_keycenter=14 bend_up=200 bend_down=-200 amp_veltrack=38.582676 ampeg_release=0.1 pitchlfo_freq=5 

<region> sample=..\..\Samples\PRE6\P_8_Pre6_D#0_RR2.wav lokey=15 hikey=15 end=554060 loop_mode=loop_continuous loopstart=187402 loopend=554059 pitch_keycenter=15 bend_up=200 bend_down=-200 amp_veltrack=38.582676 ampeg_release=0.1 pitchlfo_freq=5 

<region> sample=..\..\Samples\PRE6\P_10_Pre6_E0_RR2.wav lokey=16 hikey=16 end=551249 loop_mode=loop_continuous loopstart=186451 loopend=551248 pitch_keycenter=16 bend_up=200 bend_down=-200 amp_veltrack=38.582676 ampeg_release=0.1 pitchlfo_freq=5 

<region> sample=..\..\Samples\PRE6\P_12_Pre6_F0_RR2.wav lokey=17 hikey=17 end=569273 loop_mode=loop_continuous loopstart=192547 loopend=569272 pitch_keycenter=17 bend_up=200 bend_down=-200 amp_veltrack=38.582676 ampeg_release=0.1 pitchlfo_freq=5 

<region> sample=..\..\Samples\PRE6\P_14_Pre6_F#0_RR2.wav lokey=18 hikey=18 end=537957 loop_mode=loop_continuous loopstart=181955 loopend=537956 pitch_keycenter=18 bend_up=200 bend_down=-200 amp_veltrack=38.582676 ampeg_release=0.1 pitchlfo_freq=5 

<region> sample=..\..\Samples\PRE6\P_16_Pre6_G0_RR2.wav lokey=19 hikey=19 end=544485 loop_mode=loop_continuous loopstart=184163 loopend=544484 pitch_keycenter=19 bend_up=200 bend_down=-200 amp_veltrack=38.582676 ampeg_release=0.1 pitchlfo_freq=5 

<region> sample=..\..\Samples\PRE6\P_18_Pre6_G#0_RR2.wav lokey=20 hikey=20 end=557558 loop_mode=loop_continuous loopstart=188585 loopend=557557 pitch_keycenter=20 bend_up=200 bend_down=-200 amp_veltrack=38.582676 ampeg_release=0.1 pitchlfo_freq=5 

<region> sample=..\..\Samples\PRE6\P_20_Pre6_A0_RR2.wav lokey=21 hikey=21 end=556075 loop_mode=loop_continuous loopstart=188083 loopend=556074 pitch_keycenter=21 bend_up=200 bend_down=-200 amp_veltrack=38.582676 ampeg_release=0.1 pitchlfo_freq=5 

<region> sample=..\..\Samples\PRE6\P_22_Pre6_A#0_RR2.wav lokey=22 hikey=22 end=554481 loop_mode=loop_continuous loopstart=187544 loopend=554480 pitch_keycenter=22 bend_up=200 bend_down=-200 amp_veltrack=38.582676 ampeg_release=0.1 pitchlfo_freq=5 

<region> sample=..\..\Samples\PRE6\P_24_Pre6_B0_RR2.wav lokey=23 hikey=23 end=549889 loop_mode=loop_continuous loopstart=185991 loopend=549888 pitch_keycenter=23 bend_up=200 bend_down=-200 amp_veltrack=38.582676 ampeg_release=0.1 pitchlfo_freq=5 

<region> sample=..\..\Samples\PRE6\P_26_Pre6_C1_RR2.wav lokey=24 hikey=24 end=568804 loop_mode=loop_continuous loopstart=192389 loopend=568803 pitch_keycenter=24 bend_up=200 bend_down=-200 amp_veltrack=38.582676 ampeg_release=0.1 pitchlfo_freq=5 

<region> sample=..\..\Samples\PRE6\P_28_Pre6_C#1_RR2.wav lokey=25 hikey=25 end=555965 loop_mode=loop_continuous loopstart=188046 loopend=555964 pitch_keycenter=25 bend_up=200 bend_down=-200 amp_veltrack=38.582676 ampeg_release=0.1 pitchlfo_freq=5 

<region> sample=..\..\Samples\PRE6\P_30_Pre6_D1_RR2.wav lokey=26 hikey=26 end=551951 loop_mode=loop_continuous loopstart=186689 loopend=551950 pitch_keycenter=26 bend_up=200 bend_down=-200 amp_veltrack=38.582676 ampeg_release=0.1 pitchlfo_freq=5 

<region> sample=..\..\Samples\PRE6\P_32_Pre6_D#1_RR2.wav lokey=27 hikey=27 end=592419 loop_mode=loop_continuous loopstart=200376 loopend=592418 pitch_keycenter=27 bend_up=200 bend_down=-200 amp_veltrack=38.582676 ampeg_release=0.1 pitchlfo_freq=5 

<region> sample=..\..\Samples\PRE6\P_34_Pre6_E1_RR2.wav lokey=28 hikey=28 end=566992 loop_mode=loop_continuous loopstart=191776 loopend=566991 pitch_keycenter=28 bend_up=200 bend_down=-200 amp_veltrack=38.582676 ampeg_release=0.1 pitchlfo_freq=5 

<region> sample=..\..\Samples\PRE6\P_36_Pre6_F1_RR2.wav lokey=29 hikey=29 end=549452 loop_mode=loop_continuous loopstart=185843 loopend=549451 pitch_keycenter=29 bend_up=200 bend_down=-200 amp_veltrack=38.582676 ampeg_release=0.1 pitchlfo_freq=5 

<region> sample=..\..\Samples\PRE6\P_38_Pre6_F#1_RR2.wav lokey=30 hikey=30 end=559964 loop_mode=loop_continuous loopstart=189399 loopend=559963 pitch_keycenter=30 bend_up=200 bend_down=-200 amp_veltrack=38.582676 ampeg_release=0.1 pitchlfo_freq=5 

<region> sample=..\..\Samples\PRE6\P_40_Pre6_G1_RR2.wav lokey=31 hikey=31 end=554950 loop_mode=loop_continuous loopstart=187703 loopend=554949 pitch_keycenter=31 bend_up=200 bend_down=-200 amp_veltrack=38.582676 ampeg_release=0.1 pitchlfo_freq=5 

<region> sample=..\..\Samples\PRE6\P_42_Pre6_G#1_RR2.wav lokey=32 hikey=32 end=561760 loop_mode=loop_continuous loopstart=190006 loopend=561759 pitch_keycenter=32 bend_up=200 bend_down=-200 amp_veltrack=38.582676 ampeg_release=0.1 pitchlfo_freq=5 

<region> sample=..\..\Samples\PRE6\P_44_Pre6_A1_RR2.wav lokey=33 hikey=33 end=560932 loop_mode=loop_continuous loopstart=189726 loopend=560931 pitch_keycenter=33 bend_up=200 bend_down=-200 amp_veltrack=38.582676 ampeg_release=0.1 pitchlfo_freq=5 

<region> sample=..\..\Samples\PRE6\P_46_Pre6_A#1_RR2.wav lokey=34 hikey=34 end=525259 loop_mode=loop_continuous loopstart=177660 loopend=525258 pitch_keycenter=34 bend_up=200 bend_down=-200 amp_veltrack=38.582676 ampeg_release=0.1 pitchlfo_freq=5 

<region> sample=..\..\Samples\PRE6\P_48_Pre6_B1_RR2.wav lokey=35 hikey=35 end=531850 loop_mode=loop_continuous loopstart=179890 loopend=531849 pitch_keycenter=35 bend_up=200 bend_down=-200 amp_veltrack=38.582676 ampeg_release=0.1 pitchlfo_freq=5 

<region> sample=..\..\Samples\PRE6\K_2_Pre6_C0_RR2.wav lokey=36 hikey=36 end=546844 loop_mode=loop_continuous loopstart=184961 loopend=546843 pitch_keycenter=36 bend_up=200 bend_down=-200 amp_veltrack=38.582676 ampeg_release=0.1 pitchlfo_freq=5 

<region> sample=..\..\Samples\PRE6\K_4_Pre6_C#0_RR2.wav lokey=37 hikey=37 end=525415 loop_mode=loop_continuous loopstart=177713 loopend=525414 pitch_keycenter=37 bend_up=200 bend_down=-200 amp_veltrack=38.582676 ampeg_release=0.1 pitchlfo_freq=5 

<region> sample=..\..\Samples\PRE6\K_6_Pre6_D0_RR2.wav lokey=38 hikey=38 end=486774 loop_mode=loop_continuous loopstart=164644 loopend=486773 pitch_keycenter=38 bend_up=200 bend_down=-200 amp_veltrack=38.582676 ampeg_release=0.1 pitchlfo_freq=5 

<region> sample=..\..\Samples\PRE6\K_8_Pre6_D#0_RR2.wav lokey=39 hikey=39 end=530663 loop_mode=loop_continuous loopstart=179488 loopend=530662 pitch_keycenter=39 bend_up=200 bend_down=-200 amp_veltrack=38.582676 ampeg_release=0.1 pitchlfo_freq=5 

<region> sample=..\..\Samples\PRE6\K_10_Pre6_E0_RR2.wav lokey=40 hikey=40 end=545844 loop_mode=loop_continuous loopstart=184623 loopend=545843 pitch_keycenter=40 bend_up=200 bend_down=-200 amp_veltrack=38.582676 ampeg_release=0.1 pitchlfo_freq=5 

<region> sample=..\..\Samples\PRE6\K_12_Pre6_F0_RR2.wav lokey=41 hikey=41 end=526087 loop_mode=loop_continuous loopstart=177940 loopend=526086 pitch_keycenter=41 bend_up=200 bend_down=-200 amp_veltrack=38.582676 ampeg_release=0.1 pitchlfo_freq=5 

<region> sample=..\..\Samples\PRE6\K_14_Pre6_F#0_RR2.wav lokey=42 hikey=42 end=550171 loop_mode=loop_continuous loopstart=186087 loopend=550170 pitch_keycenter=42 bend_up=200 bend_down=-200 amp_veltrack=38.582676 ampeg_release=0.1 pitchlfo_freq=5 

<region> sample=..\..\Samples\PRE6\K_16_Pre6_G0_RR2.wav lokey=43 hikey=43 end=529819 loop_mode=loop_continuous loopstart=179203 loopend=529818 pitch_keycenter=43 bend_up=200 bend_down=-200 amp_veltrack=38.582676 ampeg_release=0.1 pitchlfo_freq=5 

<region> sample=..\..\Samples\PRE6\K_18_Pre6_G#0_RR2.wav lokey=44 hikey=44 end=553263 loop_mode=loop_continuous loopstart=187133 loopend=553262 pitch_keycenter=44 bend_up=200 bend_down=-200 amp_veltrack=38.582676 ampeg_release=0.1 pitchlfo_freq=5 

<region> sample=..\..\Samples\PRE6\K_20_Pre6_A0_RR2.wav lokey=45 hikey=45 end=539534 loop_mode=loop_continuous loopstart=182489 loopend=539533 pitch_keycenter=45 bend_up=200 bend_down=-200 amp_veltrack=38.582676 ampeg_release=0.1 pitchlfo_freq=5 

<region> sample=..\..\Samples\PRE6\K_22_Pre6_A#0_RR2.wav lokey=46 hikey=46 end=549718 loop_mode=loop_continuous loopstart=185933 loopend=549717 pitch_keycenter=46 bend_up=200 bend_down=-200 amp_veltrack=38.582676 ampeg_release=0.1 pitchlfo_freq=5 

<region> sample=..\..\Samples\PRE6\K_24_Pre6_B0_RR2.wav lokey=47 hikey=47 end=545282 loop_mode=loop_continuous loopstart=184433 loopend=545281 pitch_keycenter=47 bend_up=200 bend_down=-200 amp_veltrack=38.582676 ampeg_release=0.1 pitchlfo_freq=5 

<region> sample=..\..\Samples\PRE6\K_26_Pre6_C1_RR2.wav lokey=48 hikey=48 end=539987 loop_mode=loop_continuous loopstart=182642 loopend=539986 pitch_keycenter=48 bend_up=200 bend_down=-200 amp_veltrack=38.582676 ampeg_release=0.1 pitchlfo_freq=5 

<region> sample=..\..\Samples\PRE6\K_28_Pre6_C#1_RR2.wav lokey=49 hikey=49 end=543314 loop_mode=loop_continuous loopstart=183767 loopend=543313 pitch_keycenter=49 bend_up=200 bend_down=-200 amp_veltrack=38.582676 ampeg_release=0.1 pitchlfo_freq=5 

<region> sample=..\..\Samples\PRE6\K_30_Pre6_D1_RR2.wav lokey=50 hikey=50 end=548078 loop_mode=loop_continuous loopstart=185379 loopend=548077 pitch_keycenter=50 bend_up=200 bend_down=-200 amp_veltrack=38.582676 ampeg_release=0.1 pitchlfo_freq=5 

<region> sample=..\..\Samples\PRE6\K_32_Pre6_D#1_RR2.wav lokey=51 hikey=51 end=544813 loop_mode=loop_continuous loopstart=184274 loopend=544812 pitch_keycenter=51 bend_up=200 bend_down=-200 amp_veltrack=38.582676 ampeg_release=0.1 pitchlfo_freq=5 

<region> sample=..\..\Samples\PRE6\K_34_Pre6_E1_RR2.wav lokey=52 hikey=52 end=539128 loop_mode=loop_continuous loopstart=182352 loopend=539127 pitch_keycenter=52 bend_up=200 bend_down=-200 amp_veltrack=38.582676 ampeg_release=0.1 pitchlfo_freq=5 

<region> sample=..\..\Samples\PRE6\K_36_Pre6_F1_RR2.wav lokey=53 hikey=53 end=553045 loop_mode=loop_continuous loopstart=187059 loopend=553044 pitch_keycenter=53 bend_up=200 bend_down=-200 amp_veltrack=38.582676 ampeg_release=0.1 pitchlfo_freq=5 

<region> sample=..\..\Samples\PRE6\K_38_Pre6_F#1_RR2.wav lokey=54 hikey=54 end=532647 loop_mode=loop_continuous loopstart=180159 loopend=532646 pitch_keycenter=54 bend_up=200 bend_down=-200 amp_veltrack=38.582676 ampeg_release=0.1 pitchlfo_freq=5 

<region> sample=..\..\Samples\PRE6\K_40_Pre6_G1_RR2.wav lokey=55 hikey=55 end=537800 loop_mode=loop_continuous loopstart=181902 loopend=537799 pitch_keycenter=55 bend_up=200 bend_down=-200 amp_veltrack=38.582676 ampeg_release=0.1 pitchlfo_freq=5 

<region> sample=..\..\Samples\PRE6\K_42_Pre6_G#1_RR2.wav lokey=56 hikey=56 end=538582 loop_mode=loop_continuous loopstart=182167 loopend=538581 pitch_keycenter=56 bend_up=200 bend_down=-200 amp_veltrack=38.582676 ampeg_release=0.1 pitchlfo_freq=5 

<region> sample=..\..\Samples\PRE6\K_44_Pre6_A1_RR2.wav lokey=57 hikey=57 end=553779 loop_mode=loop_continuous loopstart=187307 loopend=553778 pitch_keycenter=57 bend_up=200 bend_down=-200 amp_veltrack=38.582676 ampeg_release=0.1 pitchlfo_freq=5 

<region> sample=..\..\Samples\PRE6\K_46_Pre6_A#1_RR2.wav lokey=58 hikey=58 end=549140 loop_mode=loop_continuous loopstart=185738 loopend=549139 pitch_keycenter=58 bend_up=200 bend_down=-200 amp_veltrack=38.582676 ampeg_release=0.1 pitchlfo_freq=5 

<region> sample=..\..\Samples\PRE6\K_48_Pre6_B1_RR2.wav lokey=59 hikey=59 end=548952 loop_mode=loop_continuous loopstart=185674 loopend=548951 pitch_keycenter=59 bend_up=200 bend_down=-200 amp_veltrack=38.582676 ampeg_release=0.1 pitchlfo_freq=5 

<region> sample=..\..\Samples\PRE6\K_50_Pre6_C2_RR2.wav lokey=60 hikey=60 end=539550 loop_mode=loop_continuous loopstart=182494 loopend=539549 pitch_keycenter=60 bend_up=200 bend_down=-200 amp_veltrack=38.582676 ampeg_release=0.1 pitchlfo_freq=5 

<region> sample=..\..\Samples\PRE6\K_52_Pre6_C#2_RR2.wav lokey=61 hikey=61 end=532709 loop_mode=loop_continuous loopstart=180180 loopend=532708 pitch_keycenter=61 bend_up=200 bend_down=-200 amp_veltrack=38.582676 ampeg_release=0.1 pitchlfo_freq=5 

<region> sample=..\..\Samples\PRE6\K_54_Pre6_D2_RR2.wav lokey=62 hikey=62 end=532880 loop_mode=loop_continuous loopstart=180238 loopend=532879 pitch_keycenter=62 bend_up=200 bend_down=-200 amp_veltrack=38.582676 ampeg_release=0.1 pitchlfo_freq=5 

<region> sample=..\..\Samples\PRE6\K_56_Pre6_D#2_RR2.wav lokey=63 hikey=63 end=546531 loop_mode=loop_continuous loopstart=184856 loopend=546530 pitch_keycenter=63 bend_up=200 bend_down=-200 amp_veltrack=38.582676 ampeg_release=0.1 pitchlfo_freq=5 

<region> sample=..\..\Samples\PRE6\K_58_Pre6_E2_RR2.wav lokey=64 hikey=64 end=560822 loop_mode=loop_continuous loopstart=189689 loopend=560821 pitch_keycenter=64 bend_up=200 bend_down=-200 amp_veltrack=38.582676 ampeg_release=0.1 pitchlfo_freq=5 

<region> sample=..\..\Samples\PRE6\K_60_Pre6_F2_RR2.wav lokey=65 hikey=65 end=537347 loop_mode=loop_continuous loopstart=181749 loopend=537346 pitch_keycenter=65 bend_up=200 bend_down=-200 amp_veltrack=38.582676 ampeg_release=0.1 pitchlfo_freq=5 

<region> sample=..\..\Samples\PRE6\K_62_Pre6_F#2_RR2.wav lokey=66 hikey=66 end=537223 loop_mode=loop_continuous loopstart=181707 loopend=537222 pitch_keycenter=66 bend_up=200 bend_down=-200 amp_veltrack=38.582676 ampeg_release=0.1 pitchlfo_freq=5 

<region> sample=..\..\Samples\PRE6\K_64_Pre6_G2_RR2.wav lokey=67 hikey=67 end=544267 loop_mode=loop_continuous loopstart=184090 loopend=544266 pitch_keycenter=67 bend_up=200 bend_down=-200 amp_veltrack=38.582676 ampeg_release=0.1 pitchlfo_freq=5 

<region> sample=..\..\Samples\PRE6\K_66_Pre6_G#2_RR2.wav lokey=68 hikey=68 end=549109 loop_mode=loop_continuous loopstart=185727 loopend=549108 pitch_keycenter=68 bend_up=200 bend_down=-200 amp_veltrack=38.582676 ampeg_release=0.1 pitchlfo_freq=5 

<region> sample=..\..\Samples\PRE6\K_68_Pre6_A2_RR2.wav lokey=69 hikey=69 end=541674 loop_mode=loop_continuous loopstart=183213 loopend=541673 pitch_keycenter=69 bend_up=200 bend_down=-200 amp_veltrack=38.582676 ampeg_release=0.1 pitchlfo_freq=5 

<region> sample=..\..\Samples\PRE6\K_70_Pre6_A#2_RR2.wav lokey=70 hikey=70 end=547078 loop_mode=loop_continuous loopstart=185040 loopend=547077 pitch_keycenter=70 bend_up=200 bend_down=-200 amp_veltrack=38.582676 ampeg_release=0.1 pitchlfo_freq=5 

<region> sample=..\..\Samples\PRE6\K_72_Pre6_B2_RR2.wav lokey=71 hikey=71 end=532256 loop_mode=loop_continuous loopstart=180027 loopend=532255 pitch_keycenter=71 bend_up=200 bend_down=-200 amp_veltrack=38.582676 ampeg_release=0.1 pitchlfo_freq=5 

<region> sample=..\..\Samples\PRE6\K_74_Pre6_C3_RR2.wav lokey=72 hikey=72 end=522057 loop_mode=loop_continuous loopstart=176577 loopend=522056 pitch_keycenter=72 bend_up=200 bend_down=-200 amp_veltrack=38.582676 ampeg_release=0.1 pitchlfo_freq=5 

<region> sample=..\..\Samples\PRE6\K_76_Pre6_C#3_RR2.wav lokey=73 hikey=73 end=546578 loop_mode=loop_continuous loopstart=184871 loopend=546577 pitch_keycenter=73 bend_up=200 bend_down=-200 amp_veltrack=38.582676 ampeg_release=0.1 pitchlfo_freq=5 

<region> sample=..\..\Samples\PRE6\K_78_Pre6_D3_RR2.wav lokey=74 hikey=74 end=525930 loop_mode=loop_continuous loopstart=177887 loopend=525929 pitch_keycenter=74 bend_up=200 bend_down=-200 amp_veltrack=38.582676 ampeg_release=0.1 pitchlfo_freq=5 

<region> sample=..\..\Samples\PRE6\K_80_Pre6_D#3_RR2.wav lokey=75 hikey=75 end=536614 loop_mode=loop_continuous loopstart=181501 loopend=536613 pitch_keycenter=75 bend_up=200 bend_down=-200 amp_veltrack=38.582676 ampeg_release=0.1 pitchlfo_freq=5 

<region> sample=..\..\Samples\PRE6\K_82_Pre6_E3_RR2.wav lokey=76 hikey=76 end=543017 loop_mode=loop_continuous loopstart=183667 loopend=543016 pitch_keycenter=76 bend_up=200 bend_down=-200 amp_veltrack=38.582676 ampeg_release=0.1 pitchlfo_freq=5 

<region> sample=..\..\Samples\PRE6\K_84_Pre6_F3_RR2.wav lokey=77 hikey=77 end=538410 loop_mode=loop_continuous loopstart=182108 loopend=538409 pitch_keycenter=77 bend_up=200 bend_down=-200 amp_veltrack=38.582676 ampeg_release=0.1 pitchlfo_freq=5 

<region> sample=..\..\Samples\PRE6\K_86_Pre6_F#3_RR2.wav lokey=78 hikey=78 end=529429 loop_mode=loop_continuous loopstart=179071 loopend=529428 pitch_keycenter=78 bend_up=200 bend_down=-200 amp_veltrack=38.582676 ampeg_release=0.1 pitchlfo_freq=5 

<region> sample=..\..\Samples\PRE6\K_88_Pre6_G3_RR2.wav lokey=79 hikey=79 end=536770 loop_mode=loop_continuous loopstart=181554 loopend=536769 pitch_keycenter=79 bend_up=200 bend_down=-200 amp_veltrack=38.582676 ampeg_release=0.1 pitchlfo_freq=5 

<region> sample=..\..\Samples\PRE6\K_90_Pre6_G#3_RR2.wav lokey=80 hikey=80 end=541346 loop_mode=loop_continuous loopstart=183102 loopend=541345 pitch_keycenter=80 bend_up=200 bend_down=-200 amp_veltrack=38.582676 ampeg_release=0.1 pitchlfo_freq=5 

<region> sample=..\..\Samples\PRE6\K_92_Pre6_A3_RR2.wav lokey=81 hikey=81 end=568179 loop_mode=loop_continuous loopstart=192178 loopend=568178 pitch_keycenter=81 bend_up=200 bend_down=-200 amp_veltrack=38.582676 ampeg_release=0.1 pitchlfo_freq=5 

<region> sample=..\..\Samples\PRE6\K_94_Pre6_A#3_RR2.wav lokey=82 hikey=82 end=536489 loop_mode=loop_continuous loopstart=181459 loopend=536488 pitch_keycenter=82 bend_up=200 bend_down=-200 amp_veltrack=38.582676 ampeg_release=0.1 pitchlfo_freq=5 

<region> sample=..\..\Samples\PRE6\K_96_Pre6_B3_RR2.wav lokey=83 hikey=83 end=540955 loop_mode=loop_continuous loopstart=182970 loopend=540954 pitch_keycenter=83 bend_up=200 bend_down=-200 amp_veltrack=38.582676 ampeg_release=0.1 pitchlfo_freq=5 

<region> sample=..\..\Samples\PRE6\K_98_Pre6_C4_RR2.wav lokey=84 hikey=84 end=551655 loop_mode=loop_continuous loopstart=186588 loopend=551654 pitch_keycenter=84 bend_up=200 bend_down=-200 amp_veltrack=38.582676 ampeg_release=0.1 pitchlfo_freq=5 

<region> sample=..\..\Samples\PRE6\K_100_Pre6_C#4_RR2.wav lokey=85 hikey=85 end=545563 loop_mode=loop_continuous loopstart=184528 loopend=545562 pitch_keycenter=85 bend_up=200 bend_down=-200 amp_veltrack=38.582676 ampeg_release=0.1 pitchlfo_freq=5 

<region> sample=..\..\Samples\PRE6\K_102_Pre6_D4_RR2.wav lokey=86 hikey=86 end=537707 loop_mode=loop_continuous loopstart=181871 loopend=537706 pitch_keycenter=86 bend_up=200 bend_down=-200 amp_veltrack=38.582676 ampeg_release=0.1 pitchlfo_freq=5 

<region> sample=..\..\Samples\PRE6\K_104_Pre6_D#4_RR2.wav lokey=87 hikey=87 end=563712 loop_mode=loop_continuous loopstart=190667 loopend=563711 pitch_keycenter=87 bend_up=200 bend_down=-200 amp_veltrack=38.582676 ampeg_release=0.1 pitchlfo_freq=5 

<region> sample=..\..\Samples\PRE6\K_106_Pre6_E4_RR2.wav lokey=88 hikey=88 end=536567 loop_mode=loop_continuous loopstart=181485 loopend=536566 pitch_keycenter=88 bend_up=200 bend_down=-200 amp_veltrack=38.582676 ampeg_release=0.1 pitchlfo_freq=5 

<region> sample=..\..\Samples\PRE6\K_108_Pre6_F4_RR2.wav lokey=89 hikey=89 end=543845 loop_mode=loop_continuous loopstart=183947 loopend=543844 pitch_keycenter=89 bend_up=200 bend_down=-200 amp_veltrack=38.582676 ampeg_release=0.1 pitchlfo_freq=5 

<region> sample=..\..\Samples\PRE6\K_110_Pre6_F#4_RR2.wav lokey=90 hikey=90 end=549842 loop_mode=loop_continuous loopstart=185975 loopend=549841 pitch_keycenter=90 bend_up=200 bend_down=-200 amp_veltrack=38.582676 ampeg_release=0.1 pitchlfo_freq=5 

<region> sample=..\..\Samples\PRE6\K_112_Pre6_G4_RR2.wav lokey=91 hikey=91 end=535379 loop_mode=loop_continuous loopstart=181084 loopend=535378 pitch_keycenter=91 bend_up=200 bend_down=-200 amp_veltrack=38.582676 ampeg_release=0.1 pitchlfo_freq=5 

<region> sample=..\..\Samples\PRE6\K_114_Pre6_G#4_RR2.wav lokey=92 hikey=92 end=532288 loop_mode=loop_continuous loopstart=180038 loopend=532287 pitch_keycenter=92 bend_up=200 bend_down=-200 amp_veltrack=38.582676 ampeg_release=0.1 pitchlfo_freq=5 

<region> sample=..\..\Samples\PRE6\K_116_Pre6_A4_RR2.wav lokey=93 hikey=93 end=528711 loop_mode=loop_continuous loopstart=178828 loopend=528710 pitch_keycenter=93 bend_up=200 bend_down=-200 amp_veltrack=38.582676 ampeg_release=0.1 pitchlfo_freq=5 

<region> sample=..\..\Samples\PRE6\K_118_Pre6_A#4_RR2.wav lokey=94 hikey=94 end=556621 loop_mode=loop_continuous loopstart=188268 loopend=556620 pitch_keycenter=94 bend_up=200 bend_down=-200 amp_veltrack=38.582676 ampeg_release=0.1 pitchlfo_freq=5 

<region> sample=..\..\Samples\PRE6\K_120_Pre6_B4_RR2.wav lokey=95 hikey=95 end=552857 loop_mode=loop_continuous loopstart=186995 loopend=552856 pitch_keycenter=95 bend_up=200 bend_down=-200 amp_veltrack=38.582676 ampeg_release=0.1 pitchlfo_freq=5 

<region> sample=..\..\Samples\PRE6\K_122_Pre6_C5_RR2.wav lokey=96 hikey=127 end=526508 loop_mode=loop_continuous loopstart=178083 loopend=526507 pitch_keycenter=96 bend_up=200 bend_down=-200 amp_veltrack=38.582676 ampeg_release=0.1 pitchlfo_freq=5 



